<svg width="344" height="344" viewBox="0 0 344 344" fill="none" xmlns="http://www.w3.org/2000/svg">
<mask id="mask0_210_3119" style="mask-type:alpha" maskUnits="userSpaceOnUse" x="0" y="0" width="344" height="344">
<circle cx="172" cy="172" r="172" fill="#D9D9D9"/>
</mask>
<g mask="url(#mask0_210_3119)">
<path d="M94.1542 288.458C94.1542 288.458 72.8881 270.632 85.3976 241.443C98.0112 212.359 134.706 208.085 170.045 207.98C223.939 207.98 288.259 226.536 245.31 288.458C245.31 288.458 191.832 323.901 94.1542 288.458Z" fill="#FF9A40"/>
<path d="M147.319 253.64C146.589 253.64 145.964 253.119 145.755 252.494C141.794 240.297 130.952 232.583 130.848 232.583C130.118 232.062 129.91 231.019 130.431 230.29C130.952 229.56 131.891 229.351 132.62 229.873C133.142 230.185 144.504 238.212 148.778 251.451C149.091 252.285 148.57 253.223 147.736 253.536C147.597 253.606 147.458 253.64 147.319 253.64Z" fill="#E96D17"/>
<path d="M170.149 275.217C169.628 275.217 169.106 275.009 168.794 274.488C154.721 252.596 112.918 246.341 112.501 246.237C111.563 246.133 110.938 245.299 111.146 244.361C111.25 243.527 112.084 242.901 112.918 243.006C114.69 243.318 156.597 249.677 171.504 272.82C171.921 273.549 171.713 274.488 170.983 275.009C170.705 275.148 170.427 275.217 170.149 275.217Z" fill="#E96D17"/>
<path d="M315.049 344.229H29C29 344.229 31.9189 308.473 49.2236 301.593C56.208 298.778 72.1575 290.855 88.7325 282.307C111.979 270.423 136.268 257.601 138.77 256.246C138.909 256.176 138.979 256.142 138.979 256.142L141.168 256.663C143.878 257.219 146.623 257.74 149.403 258.227C152.114 258.643 154.859 258.991 157.639 259.269C172.65 260.728 187.974 259.686 202.777 256.142C202.846 256.142 202.881 256.142 202.881 256.142C202.881 256.142 221.541 265.732 242.39 276.261C245.1 277.581 247.811 278.937 250.521 280.327C268.973 289.604 287.424 298.569 294.93 301.593C312.234 308.473 315.049 344.229 315.049 344.229Z" fill="#FF9A40"/>
<path d="M185.37 298.783C169.629 298.783 156.598 294.613 147.32 290.339C132.622 283.667 124.282 275.432 123.865 275.015C123.344 274.494 123.344 273.451 123.865 272.93C124.491 272.305 125.429 272.305 126.054 272.93C126.158 272.93 134.394 281.165 148.675 287.733C161.706 293.675 182.659 299.408 207.991 292.841C208.721 292.632 209.555 293.049 209.763 293.883C209.972 294.717 209.555 295.551 208.721 295.76C200.381 297.845 192.563 298.783 185.37 298.783Z" fill="#E96D17"/>
<path d="M177.968 313.273C172.86 313.273 167.335 312.751 161.288 311.5C160.454 311.292 159.933 310.562 160.142 309.728C160.246 308.894 161.08 308.373 161.914 308.582C191.624 314.732 210.179 301.701 210.388 301.597C211.118 301.076 212.056 301.284 212.473 301.91C212.994 302.64 212.786 303.578 212.16 303.995C211.535 304.516 199.025 313.273 177.968 313.273Z" fill="#E96D17"/>
<path d="M204.341 263.441C204.341 263.441 198.712 281.059 172.963 281.059C142.836 281.059 135.748 265.005 135.748 265.005C138.354 258.125 140.23 251.661 141.377 245.928C143.67 235.399 143.983 227.164 143.774 222.16L196.627 220.075C197.148 224.558 197.878 229.77 198.816 235.087C201.214 249.16 204.341 263.441 204.341 263.441Z" fill="#FFB8A1"/>
<path d="M198.815 235.087C190.684 240.82 172.754 249.264 141.376 245.928C143.669 235.399 143.982 227.164 143.774 222.16L196.626 220.075C197.147 224.558 197.877 229.77 198.815 235.087Z" fill="#3F2037"/>
<path d="M123.656 153.256C123.656 153.256 107.289 131.051 94.5712 144.186C81.8533 157.321 106.455 203.189 128.659 193.182L123.656 153.256Z" fill="#FFB8A1"/>
<path d="M115.836 179.524C115.315 179.524 114.794 179.107 114.794 178.586C112.605 163.158 100.304 153.671 100.2 153.567C99.6784 153.15 99.5742 152.42 99.9912 151.899C100.304 151.482 101.034 151.378 101.555 151.691C102.076 152.108 114.69 161.907 116.983 178.273C117.087 178.899 116.67 179.42 116.045 179.524C115.975 179.524 115.906 179.524 115.836 179.524Z" fill="#FF8A8A"/>
<path d="M112.397 168.48C112.084 168.48 111.772 168.271 111.459 167.958C109.895 165.561 104.996 165.248 103.224 165.352C102.598 165.456 102.077 164.935 101.973 164.31C101.973 163.684 102.494 163.163 103.119 163.163C103.328 163.163 110.729 162.746 113.335 166.707C113.752 167.229 113.544 167.958 113.023 168.271C112.884 168.41 112.675 168.48 112.397 168.48Z" fill="#FF8A8A"/>
<path d="M223.21 153.256C223.21 153.256 239.576 131.051 252.294 144.186C265.012 157.321 240.515 203.189 218.206 193.182L223.21 153.256Z" fill="#FFB8A1"/>
<path d="M231.029 179.524C230.959 179.524 230.924 179.524 230.924 179.524C230.299 179.42 229.882 178.899 229.882 178.273C232.175 161.907 244.789 152.108 245.31 151.691C245.831 151.378 246.561 151.482 246.978 151.899C247.291 152.42 247.187 153.15 246.77 153.567C246.561 153.671 234.26 163.158 232.175 178.586C232.071 179.107 231.55 179.524 231.029 179.524Z" fill="#FF8A8A"/>
<path d="M234.469 168.48C234.26 168.48 234.052 168.41 233.843 168.271C233.322 167.958 233.218 167.229 233.53 166.707C236.241 162.746 243.538 163.163 243.851 163.163C244.476 163.163 244.893 163.684 244.893 164.31C244.893 164.935 244.268 165.456 243.746 165.352C241.974 165.248 237.075 165.561 235.407 167.958C235.198 168.271 234.781 168.48 234.469 168.48Z" fill="#FF8A8A"/>
<path d="M187.244 88.4139C141.48 77.2597 100.095 118.541 110.415 164.513C117.713 196.933 133.662 237.797 172.962 238.736C213.827 239.674 230.193 195.161 236.135 161.386C241.452 130.425 223.417 99.9852 193.603 90.1861C191.518 89.4911 189.398 88.9004 187.244 88.4139Z" fill="#FFB8A1"/>
<path d="M176.194 192.451C174.248 192.451 172.094 191.93 169.731 190.887C169.106 190.679 168.689 189.949 168.793 189.219L172.129 164.096C172.233 163.262 172.963 162.637 173.901 162.741C174.735 162.845 175.36 163.679 175.256 164.513L172.129 188.385C175.36 189.636 177.862 189.532 179.947 188.072C180.677 187.655 181.615 187.864 182.136 188.594C182.657 189.323 182.449 190.262 181.719 190.783C180.051 191.895 178.21 192.451 176.194 192.451Z" fill="#FF8A8A"/>
<path d="M173.172 209.024C163.998 209.024 157.014 205.167 156.805 205.167C156.076 204.75 155.763 203.708 156.18 202.978C156.701 202.144 157.639 201.936 158.473 202.352C159.203 202.769 177.029 212.36 192.457 198.078C193.187 197.453 194.125 197.557 194.751 198.183C195.376 198.808 195.376 199.851 194.646 200.476C187.558 207.044 179.844 209.024 173.172 209.024Z" fill="#FF8A8A"/>
<path d="M175.778 218.196C172.129 218.196 169.21 217.362 169.002 217.258C168.168 217.049 167.751 216.111 167.959 215.277C168.272 214.443 169.21 213.922 170.044 214.235C170.044 214.235 177.237 216.424 182.241 213.505C183.075 213.088 184.013 213.401 184.43 214.131C184.847 214.965 184.639 215.903 183.805 216.32C181.303 217.779 178.384 218.196 175.778 218.196Z" fill="#FF8A8A"/>
<path d="M141.793 146.581C145.233 144.809 150.341 142.411 155.241 141.786C157.847 141.369 159.515 138.658 158.681 136.156L158.473 135.635C157.847 133.863 155.971 132.716 154.094 132.925C149.716 133.342 141.898 134.905 136.79 140.013C135.747 141.056 135.33 142.724 135.851 144.183C136.581 146.685 139.5 147.832 141.793 146.581Z" fill="#3F2037"/>
<path d="M208.511 146.581C204.967 144.809 199.963 142.411 195.063 141.786C192.353 141.369 190.685 138.658 191.623 136.156L191.832 135.635C192.457 133.863 194.229 132.716 196.21 132.925C200.588 133.342 208.407 134.905 213.41 140.013C214.557 141.056 214.974 142.724 214.453 144.183C213.619 146.685 210.804 147.832 208.511 146.581Z" fill="#3F2037"/>
<g opacity="0.5">
<path d="M153.573 175.559C153.573 179.521 146.276 182.752 137.311 182.752C128.346 182.752 121.049 179.521 121.049 175.559C121.049 171.598 128.346 168.471 137.311 168.471C146.276 168.471 153.573 171.598 153.573 175.559Z" fill="#FF8A8A"/>
</g>
<g opacity="0.5">
<path d="M230.298 175.559C230.298 179.521 223.001 182.752 213.932 182.752C204.967 182.752 197.669 179.521 197.669 175.559C197.669 171.598 204.967 168.471 213.932 168.471C223.001 168.471 230.298 171.598 230.298 175.559Z" fill="#FF8A8A"/>
</g>
<path d="M112.084 171.599C112.084 171.599 103.536 124.272 106.246 113.43C108.852 102.589 114.377 104.57 114.377 104.57C114.377 104.57 68.0925 66.6244 91.1307 45.0456C107.81 29.5131 126.991 62.8715 126.991 62.8715C126.991 62.8715 117.505 30.0343 130.952 25.5517C147.84 19.9225 155.45 59.2229 155.45 59.2229C155.45 59.2229 153.991 29.93 167.751 30.5555C186.724 31.2852 175.986 53.1767 196.523 61.7248C217.163 70.3772 248.228 74.6512 236.97 109.156C236.97 109.156 252.085 108.427 233.321 169.931C228.526 163.26 226.024 155.024 226.441 146.789C226.754 140.43 226.754 133.029 225.399 128.546C225.399 128.546 213.723 120.311 214.244 108.218C214.244 108.218 172.755 132.82 134.601 110.929C134.601 110.929 136.999 125.106 125.01 127.191C125.01 127.191 121.049 136.469 119.694 149.604C118.964 157.109 116.567 164.511 112.501 170.974L112.084 171.599Z" fill="#3F2037"/>
<path d="M233.216 87.4742C233.216 87.4742 239.68 65.1657 250.313 70.8992C257.818 74.9647 240.305 91.9567 240.305 91.9567C240.305 91.9567 255.004 83.9298 262.301 89.5591C269.598 95.1883 250.313 101.86 239.158 99.9836C228.004 98.1072 233.216 87.4742 233.216 87.4742Z" fill="#3F2037"/>
<path d="M154.72 158.886C154.824 163.264 153.156 166.913 151.175 166.913C149.091 166.913 147.318 163.473 147.318 159.094C147.214 154.716 148.778 151.172 150.863 151.067C152.948 151.067 154.616 154.612 154.72 158.886Z" fill="#3F2037"/>
<path d="M193.707 158.886C193.707 163.264 195.27 166.913 197.355 166.913C199.44 166.913 201.108 163.473 201.212 159.094C201.316 154.716 199.649 151.172 197.668 151.067C195.583 151.067 193.811 154.612 193.707 158.886Z" fill="#3F2037"/>
<path d="M130.223 299.3V344.23H126.991V299.3C127.061 298.953 127.2 298.64 127.408 298.362C127.617 297.945 128.138 297.736 128.659 297.736C129.389 297.736 130.119 298.258 130.223 298.987C130.223 299.126 130.223 299.231 130.223 299.3Z" fill="white"/>
<path d="M219.873 299.3V344.23H216.642V299.3C216.642 298.466 217.371 297.736 218.205 297.736C218.935 297.736 219.56 298.153 219.769 298.779C219.838 298.987 219.873 299.161 219.873 299.3Z" fill="white"/>
</g>
</svg>
